<svg xmlns="http://www.w3.org/2000/svg" viewBox="0 0 1440 320"><path fill="#ec1f06" fill-opacity="1" d="M0,32L16,32C32,32,64,32,96,48C128,64,160,96,192,106.7C224,117,256,107,288,133.3C320,160,352,224,384,208C416,192,448,96,480,74.7C512,53,544,107,576,117.3C608,128,640,96,672,122.7C704,149,736,235,768,256C800,277,832,235,864,186.7C896,139,928,85,960,58.7C992,32,1024,32,1056,48C1088,64,1120,96,1152,112C1184,128,1216,128,1248,160C1280,192,1312,256,1344,261.3C1376,267,1408,213,1424,186.7L1440,160L1440,0L1424,0C1408,0,1376,0,1344,0C1312,0,1280,0,1248,0C1216,0,1184,0,1152,0C1120,0,1088,0,1056,0C1024,0,992,0,960,0C928,0,896,0,864,0C832,0,800,0,768,0C736,0,704,0,672,0C640,0,608,0,576,0C544,0,512,0,480,0C448,0,416,0,384,0C352,0,320,0,288,0C256,0,224,0,192,0C160,0,128,0,96,0C64,0,32,0,16,0L0,0Z"></path></svg>